# xmcd
#
# Track frame offsets:
#	150
#	14292
#	23407
#	38717
#	46531
#	65647
#	72276
#	84125
#	101523
#	115182
#	133733
#	143891
#	156210
#	172643
#	189017
#	201857
#	218287
#	236413
#	247101
#	257317
#
# Disc length: 3566 seconds
#
# Revision: 1
# Processed by: cddbd v1.5.2PL0 Copyright (c) Steve Scherf et al.
# Submitted via: dBpowerAMP V4.0
#
DISCID=f10dec14
DTITLE=Various Artist - Country Spirit - CD4 Dancing Time
DYEAR=1900
DGENRE=Country
TTITLE0=Cotton Eyed Joe - The Hot Billys
TTITLE1=Suzie Q - Mickey Gilley
TTITLE2=Cleopatra Queen Of Dennial - Pam Tillis
TTITLE3=Blue Blue Day - Don Gibson
TTITLE4=Son of Man - Chip Taylor and Carrie Rodriguez
TTITLE5=I Saw The Light - Boxcar Willie
TTITLE6=38 - 21...34 - Dale Watson And His Lone Stars
TTITLE7=Jambalaya - Freddy Fender
TTITLE8=New Shoes - Kendel Carson
TTITLE9=David Frizzel - I'm Gonna Hire A Wino To Decorate Our Home
TTITLE10=Faron Young - Live Fast , Love Hard , Die Young
TTITLE11=Lacy J. Dalton - Dream Baby
TTITLE12=Jan Vardoen - Walk On By
TTITLE13=The Countrypolitans - Instant Love
TTITLE14=Little Copper Wire - Claude Diamond
TTITLE15=Desporado - I Got A Love
TTITLE16=Chuck Mead - Albuquerque
TTITLE17=Ferlin Husky - Wings Of A Dove
TTITLE18=Dave Dudley - Six Days On The Road
TTITLE19=George Jones - Why Baby Why
EXTD=
EXTT0=
EXTT1=
EXTT2=
EXTT3=
EXTT4=
EXTT5=
EXTT6=
EXTT7=
EXTT8=
EXTT9=
EXTT10=
EXTT11=
EXTT12=
EXTT13=
EXTT14=
EXTT15=
EXTT16=
EXTT17=
EXTT18=
EXTT19=
PLAYORDER=
